<svg version="1.1" viewBox="0.0 0.0 960.0 540.0" fill="none" stroke="none" stroke-linecap="square" stroke-miterlimit="10" xmlns:xlink="http://www.w3.org/1999/xlink" xmlns="http://www.w3.org/2000/svg"><clipPath id="p.0"><path d="m0 0l960.0 0l0 540.0l-960.0 0l0 -540.0z" clip-rule="nonzero"/></clipPath><g clip-path="url(#p.0)"><path fill="#0e1012" d="m0 0l960.0 0l0 540.0l-960.0 0z" fill-rule="evenodd"/><path fill="#000000" fill-opacity="0.0" d="m333.24933 203.68504l385.54333 0l0 132.62993l-385.54333 0z" fill-rule="evenodd"/><path fill="#bbaaff" d="m356.09607 304.84503l0 -49.53125l11.421875 0l0 7.296875l0.671875 0q1.15625 -3.46875 3.3125 -5.953125q2.171875 -2.5 6.109375 -2.5q7.1875 0 8.828125 8.453125l0.578125 0q0.578125 -1.734375 1.4375 -3.265625q0.859375 -1.546875 2.109375 -2.6875q1.25 -1.15625 2.96875 -1.828125q1.734375 -0.671875 4.046875 -0.671875q10.359375 0 10.359375 15.265625l0 35.421875l-11.421875 0l0 -33.984375q0 -3.453125 -1.203125 -4.84375q-1.203125 -1.390625 -3.125 -1.390625q-1.8125 0 -3.109375 1.203125q-1.296875 1.1875 -1.296875 3.6875l0 35.328125l-11.515625 0l0 -33.984375q0 -3.453125 -1.109375 -4.84375q-1.109375 -1.390625 -3.03125 -1.390625q-1.921875 0 -3.265625 1.203125q-1.34375 1.1875 -1.34375 3.6875l0 35.328125l-11.421875 0zm86.599976 -55.875q-4.796875 0 -6.671875 -1.96875q-1.875 -1.96875 -1.875 -4.75l0 -2.78125q0 -2.875 1.875 -4.796875q1.875 -1.921875 6.671875 -1.921875q4.796875 0 6.671875 1.921875q1.875 1.921875 1.875 4.796875l0 2.78125q0 2.78125 -1.875 4.75q-1.875 1.96875 -6.671875 1.96875zm-22.84375 44.828125l15.734375 0l0 -27.453125l-15.734375 0l0 -11.03125l29.9375 0l0 38.484375l14.59375 0l0 11.046875l-44.53125 0l0 -11.046875zm55.6781 0l11.421875 0l0 -27.453125l-11.421875 0l0 -11.03125l25.625 0l0 14.015625l0.671875 0q0.671875 -2.6875 1.875 -5.234375q1.203125 -2.546875 3.0625 -4.515625q1.875 -1.96875 4.5625 -3.109375q2.6875 -1.15625 6.34375 -1.15625l4.703125 0l0 13.046875l-10.5625 0q-5.28125 0 -7.96875 3.125q-2.6875 3.125 -2.6875 7.625l0 14.6875l16.328125 0l0 11.046875l-41.953125 0l0 -11.046875zm80.631226 12.203125q-12.484375 0 -18.921875 -6.90625q-6.421875 -6.921875 -6.421875 -18.828125q0 -6.046875 1.671875 -10.890625q1.6875 -4.84375 4.8125 -8.25q3.125 -3.421875 7.578125 -5.1875q4.46875 -1.78125 10.03125 -1.78125q5.578125 0 9.984375 1.78125q4.421875 1.765625 7.484375 5.03125q3.078125 3.265625 4.75 7.921875q1.6875 4.65625 1.6875 10.421875l0 4.21875l-33.890625 0l0 0.859375q0 4.8125 2.96875 7.734375q2.984375 2.921875 8.75 2.921875q4.421875 0 7.578125 -1.671875q3.171875 -1.6875 5.484375 -4.46875l7.671875 8.359375q-2.875 3.546875 -8.0625 6.140625q-5.1875 2.59375 -13.15625 2.59375zm-1.15625 -41.671875q-4.59375 0 -7.34375 2.84375q-2.734375 2.828125 -2.734375 7.625l0 0.765625l19.96875 0l0 -0.765625q0 -4.890625 -2.640625 -7.671875q-2.640625 -2.796875 -7.25 -2.796875zm56.83435 41.671875q-8.25 0 -14.34375 -2.5q-6.09375 -2.5 -9.171875 -6.8125l7.96875 -7.390625q2.875 3.15625 6.765625 4.9375q3.890625 1.78125 8.875 1.78125q4.234375 0 6.625 -1.296875q2.40625 -1.296875 2.40625 -3.984375q0 -2.109375 -1.640625 -2.921875q-1.625 -0.828125 -4.5 -1.3125l-7.96875 -1.234375q-3.359375 -0.484375 -6.25 -1.484375q-2.875 -1.015625 -4.984375 -2.734375q-2.109375 -1.734375 -3.359375 -4.234375q-1.25 -2.5 -1.25 -6.046875q0 -7.78125 5.953125 -12.1875q5.953125 -4.421875 16.703125 -4.421875q7.296875 0 12.421875 1.96875q5.140625 1.96875 8.21875 5.609375l-7.109375 8.0625q-2.203125 -2.390625 -5.65625 -4.015625q-3.453125 -1.640625 -8.359375 -1.640625q-8.25 0 -8.25 4.984375q0 2.21875 1.625 3.03125q1.640625 0.8125 4.515625 1.296875l7.875 1.25q3.359375 0.484375 6.234375 1.5q2.890625 1.0 5.046875 2.734375q2.15625 1.71875 3.40625 4.21875q1.25 2.484375 1.25 6.046875q0 7.765625 -6.0 12.28125q-6.0 4.515625 -17.046875 4.515625zm76.131226 -1.15625q-4.40625 0 -7.109375 -2.25q-2.6875 -2.265625 -3.15625 -6.484375l-0.484375 0q-1.34375 4.890625 -5.328125 7.390625q-3.984375 2.5 -9.75 2.5q-7.1875 0 -11.5625 -3.890625q-4.375 -3.890625 -4.375 -10.890625q0 -7.78125 5.65625 -11.515625q5.671875 -3.75 16.625 -3.75l7.96875 0l0 -2.5q0 -4.421875 -2.0625 -6.671875q-2.0625 -2.25 -6.96875 -2.25q-4.5 0 -7.296875 1.734375q-2.78125 1.71875 -4.796875 4.5l-7.765625 -6.90625q2.484375 -4.234375 7.8125 -6.96875q5.328125 -2.734375 13.6875 -2.734375q10.171875 0 15.875 4.65625q5.71875 4.65625 5.71875 14.0625l0 21.703125l5.46875 0l0 10.265625l-8.15625 0zm-20.453125 -8.15625q3.75 0 6.34375 -1.828125q2.59375 -1.828125 2.59375 -5.28125l0 -5.953125l-7.59375 0q-8.734375 0 -8.734375 5.859375l0 1.921875q0 2.59375 2.015625 3.9375q2.015625 1.34375 5.375 1.34375z" fill-rule="nonzero"/><path fill="#bbaaff" d="m267.58487 262.1664l26.37793 15.22113l0 30.439636l-26.37793 15.22113l-26.377945 -15.22113l0 -30.439636z" fill-rule="evenodd"/><path stroke="#0e1012" stroke-width="1.0" stroke-linejoin="round" stroke-linecap="butt" d="m267.58487 262.1664l26.37793 15.22113l0 30.439636l-26.37793 15.22113l-26.377945 -15.22113l0 -30.439636z" fill-rule="evenodd"/><path fill="#bbaaff" d="m294.0016 216.95169l26.37793 15.22113l0 30.439636l-26.37793 15.22113l-26.37793 -15.22113l0 -30.439636z" fill-rule="evenodd"/><path stroke="#0e1012" stroke-width="1.0" stroke-linejoin="round" stroke-linecap="butt" d="m294.0016 216.95169l26.37793 15.22113l0 30.439636l-26.37793 15.22113l-26.37793 -15.22113l0 -30.439636z" fill-rule="evenodd"/></g></svg>